<svg width="61" height="60" viewBox="0 0 61 60" fill="none" xmlns="http://www.w3.org/2000/svg">
<path d="M53.8276 26.9616H40.2338V21.8683C40.2338 21.3063 40.4445 16.5993 45.4676 16.5993C50.4906 16.5993 50.7014 21.3063 50.7014 21.8683V23.5895H53.3358V21.8683C53.3358 19.1284 51.6849 14 45.4676 14C39.2502 14 37.5993 19.1636 37.5993 21.8683V26.9616H37.4939C35.7376 26.9616 34.2974 28.4369 34.2974 30.2634V30.685H10.4116C7.25022 30.685 4.65088 33.2492 4.65088 36.4105C4.65088 39.5719 7.2151 42.1712 10.4116 42.1712H34.2974V42.6981C34.2974 44.5247 35.7376 46 37.4939 46H53.7925C55.5488 46 56.989 44.5247 56.989 42.6981V30.2634C57.0241 28.4369 55.5839 26.9616 53.8276 26.9616ZM34.0867 40.2393H10.4116C8.30401 40.2393 6.58282 38.5181 6.58282 36.4105C6.58282 34.303 8.30401 32.5818 10.4116 32.5818H34.0867V40.2393ZM47.54 40.2393H43.1141L44.2733 36.7267C43.5708 36.3403 43.1141 35.6378 43.1141 34.7947C43.1141 33.5653 44.0976 32.5818 45.3271 32.5818C46.5565 32.5818 47.54 33.5653 47.54 34.7947C47.54 35.6378 47.0834 36.3754 46.3809 36.7267L47.54 40.2393Z" fill="white"/>
<path d="M13.292 36.4106L15.4348 38.0615L14.7322 38.9748L12.9408 37.5697V39.3963H11.7816V37.5697L9.99013 38.9748L9.2876 38.0615L11.4303 36.4106L9.2876 34.7596L9.99013 33.8463L11.7816 35.2514V33.4248H12.9408V35.2514L14.7322 33.8463L15.4348 34.7596L13.292 36.4106Z" fill="white"/>
<path d="M21.9681 36.4106L24.1108 38.0615L23.4083 38.9748L21.5817 37.5697V39.3963H20.4576V37.5697L18.6662 38.9748L17.9636 38.0615L20.1063 36.4106L17.9636 34.7596L18.6662 33.8463L20.4576 35.2514V33.4248H21.5817V35.2514L23.4083 33.8463L24.1108 34.7596L21.9681 36.4106Z" fill="white"/>
<path d="M30.6092 36.4106L32.7871 38.0615L32.0845 38.9748L30.2579 37.5697V39.3963H29.1339V37.5697L27.3424 38.9748L26.6399 38.0615L28.7826 36.4106L26.6399 34.7596L27.3424 33.8463L29.1339 35.2514V33.4248H30.2579V35.2514L32.0845 33.8463L32.7871 34.7596L30.6092 36.4106Z" fill="white"/>
</svg>
