<?xml version="1.0" encoding="utf-8"?>
<!-- Generator: Adobe Illustrator 27.2.0, SVG Export Plug-In . SVG Version: 6.00 Build 0)  -->
<svg version="1.1" id="SatuPassword_Logo" xmlns="http://www.w3.org/2000/svg" xmlns:xlink="http://www.w3.org/1999/xlink" x="0px"
	 y="0px" viewBox="0 50 640 240" style="enable-background:new 0 0 640 400;" xml:space="preserve">
<style type="text/css">
	.st0{fill:#4A596D;}
	.st1{fill:#AAB7C0;}
</style>
<g id="Title" transform="matrix(1,0,0,1,0,100.5542592819875)">
	<g id="textblocktransform">
		<g>
			<g transform="matrix(1,0,0,1,0,0)">
				<path id="text-0" class="st0" d="M153,144.8c0,2.4-0.6,4.5-1.9,6.4c-1.3,1.8-3,3.3-5.4,4.3c-2.3,1-5.1,1.5-8.3,1.5l0,0
					c-6.3,0-11.4-1.8-15.1-5.5l0,0l4.6-5.1c2.9,2.6,6.4,3.9,10.3,3.9l0,0c1.9,0,3.5-0.4,4.6-1.2c1.2-0.8,1.7-2,1.7-3.4l0,0
					c0-1.4-0.5-2.5-1.5-3.3c-1-0.8-2.8-1.6-5.4-2.4l0,0c-4.5-1.4-7.7-3-9.6-4.8c-1.9-1.8-2.8-4.2-2.8-7.1l0,0c0-2.3,0.6-4.3,1.9-6
					c1.3-1.7,3-3,5.2-3.9c2.2-0.9,4.6-1.3,7.3-1.3l0,0c5.6,0,10.2,1.7,13.7,5l0,0l-4.3,4.9c-1.3-1.1-2.7-1.9-4.2-2.4
					c-1.5-0.5-3-0.8-4.6-0.8l0,0c-1.8,0-3.2,0.3-4.2,1c-1,0.6-1.5,1.6-1.5,2.8l0,0c0,0.8,0.2,1.5,0.7,2c0.5,0.6,1.2,1.1,2.3,1.5
					c1.1,0.5,2.7,1,4.8,1.7l0,0c3.9,1.2,6.8,2.7,8.7,4.6C152,138.9,153,141.5,153,144.8L153,144.8z M176.8,147.8h-11.2l-2,8.3h-9.5
					l11.7-38.3h11l11.7,38.3h-9.7L176.8,147.8z M167,141.2h8.3l-4.1-17L167,141.2z M208.9,124.7V156h-9.1v-31.3h-10.8v-7h31l-0.9,7
					H208.9z M251.8,117.8v25.5c0,2.7-0.5,5-1.6,7.1c-1.1,2.1-2.7,3.7-4.8,4.9c-2.1,1.2-4.7,1.8-7.8,1.8l0,0c-4.6,0-8.2-1.2-10.6-3.7
					c-2.4-2.5-3.6-5.8-3.6-10.1l0,0v-25.5h9.1v22.1c0,2.5,0.1,4.4,0.4,5.9s0.8,2.6,1.5,3.3c0.8,0.8,1.8,1.1,3.2,1.1l0,0
					c1.4,0,2.5-0.4,3.2-1.1c0.8-0.8,1.3-1.9,1.5-3.3s0.4-3.4,0.4-5.9l0,0v-22.1H251.8z M285.9,130.3c0,4.3-1.4,7.6-4.1,9.7
					c-2.7,2.2-6.4,3.3-11.1,3.3l0,0h-4.2V156h-9.1v-38.3h12c5.3,0,9.4,1,12.1,3.1C284.5,123,285.9,126.1,285.9,130.3L285.9,130.3z
					 M276.7,130.3c0-4-2.3-6-6.9-6l0,0h-3.1v12.5h3.6c2.1,0,3.7-0.5,4.8-1.6C276.1,134.1,276.7,132.5,276.7,130.3L276.7,130.3z
					 M309.3,147.8h-11.2l-2,8.3h-9.5l11.7-38.3h11l11.7,38.3h-9.7L309.3,147.8z M299.6,141.2h8.3l-4.1-17L299.6,141.2z M351.8,144.8
					c0,2.4-0.6,4.5-1.9,6.4c-1.3,1.8-3,3.3-5.4,4.3c-2.3,1-5.1,1.5-8.3,1.5l0,0c-6.3,0-11.4-1.8-15.1-5.5l0,0l4.6-5.1
					c2.9,2.6,6.4,3.9,10.3,3.9l0,0c1.9,0,3.4-0.4,4.6-1.2c1.2-0.8,1.7-2,1.7-3.4l0,0c0-1.4-0.5-2.5-1.5-3.3c-1-0.8-2.8-1.6-5.4-2.4
					l0,0c-4.5-1.4-7.7-3-9.6-4.8c-1.9-1.8-2.8-4.2-2.8-7.1l0,0c0-2.3,0.6-4.3,1.9-6c1.3-1.7,3-3,5.2-3.9c2.2-0.9,4.6-1.3,7.3-1.3
					l0,0c5.6,0,10.2,1.7,13.7,5l0,0l-4.3,4.9c-1.3-1.1-2.7-1.9-4.2-2.4c-1.5-0.5-3-0.8-4.6-0.8l0,0c-1.8,0-3.2,0.3-4.2,1
					c-1,0.6-1.5,1.6-1.5,2.8l0,0c0,0.8,0.2,1.5,0.7,2c0.5,0.6,1.2,1.1,2.3,1.5c1.1,0.5,2.7,1,4.8,1.7l0,0c3.9,1.2,6.8,2.7,8.7,4.6
					C350.8,138.9,351.8,141.5,351.8,144.8L351.8,144.8z M384.9,144.8c0,2.4-0.6,4.5-1.9,6.4c-1.3,1.8-3,3.3-5.4,4.3
					c-2.3,1-5.1,1.5-8.3,1.5l0,0c-6.3,0-11.4-1.8-15.1-5.5l0,0l4.6-5.1c2.9,2.6,6.4,3.9,10.3,3.9l0,0c1.9,0,3.5-0.4,4.6-1.2
					c1.2-0.8,1.7-2,1.7-3.4l0,0c0-1.4-0.5-2.5-1.5-3.3c-1-0.8-2.8-1.6-5.4-2.4l0,0c-4.5-1.4-7.7-3-9.6-4.8c-1.9-1.8-2.8-4.2-2.8-7.1
					l0,0c0-2.3,0.6-4.3,1.9-6c1.3-1.7,3-3,5.2-3.9c2.2-0.9,4.6-1.3,7.3-1.3l0,0c5.6,0,10.2,1.7,13.7,5l0,0l-4.3,4.9
					c-1.3-1.1-2.7-1.9-4.2-2.4c-1.5-0.5-3-0.8-4.6-0.8l0,0c-1.8,0-3.2,0.3-4.2,1c-1,0.6-1.5,1.6-1.5,2.8l0,0c0,0.8,0.2,1.5,0.7,2
					c0.5,0.6,1.2,1.1,2.3,1.5c1.1,0.5,2.7,1,4.8,1.7l0,0c3.9,1.2,6.8,2.7,8.7,4.6C383.9,138.9,384.9,141.5,384.9,144.8L384.9,144.8z
					 M420,117.8l-4.5,38.3h-9.4l-2.8-27.4l-3.1,27.4h-9.6l-4.1-38.3h8.4l1.3,30.5l3.1-26.1h7.8l2.9,26.1l1.9-30.5H420z M451.7,136.9
					c0,6.2-1.3,11.1-4,14.7c-2.6,3.6-6.4,5.4-11.3,5.4l0,0c-5,0-8.8-1.8-11.4-5.3c-2.6-3.5-3.9-8.5-3.9-14.8l0,0
					c0-6.2,1.3-11.1,3.9-14.7c2.6-3.6,6.4-5.4,11.4-5.4l0,0c5,0,8.8,1.8,11.4,5.3C450.3,125.7,451.7,130.6,451.7,136.9L451.7,136.9z
					 M442.4,136.9c0-4.7-0.5-8.1-1.4-10.3c-0.9-2.1-2.5-3.2-4.6-3.2l0,0c-2.1,0-3.7,1.1-4.6,3.2c-0.9,2.1-1.4,5.6-1.4,10.3l0,0
					c0,4.7,0.5,8.1,1.4,10.3c0.9,2.1,2.5,3.2,4.6,3.2l0,0c2.2,0,3.7-1.1,4.6-3.2C441.9,145,442.4,141.6,442.4,136.9L442.4,136.9z
					 M483.9,129.4c0,2.6-0.7,4.7-2.1,6.5c-1.4,1.8-3.2,3.1-5.5,4l0,0l10,16.1H476l-8.3-14.6h-2.5V156h-9.1v-38.3h12
					c5.3,0,9.2,1,11.8,2.9C482.6,122.6,483.9,125.5,483.9,129.4L483.9,129.4z M474.6,129.4c0-1.8-0.5-3.2-1.6-4
					c-1-0.8-2.7-1.3-4.8-1.3l0,0h-3v11h3.4c2,0,3.5-0.5,4.5-1.4C474.1,132.9,474.6,131.4,474.6,129.4L474.6,129.4z M517.7,136.7
					c0,12.9-6.2,19.3-18.5,19.3l0,0h-10.3v-38.3h9.7c5.8,0,10.4,1.4,13.9,4.1C516,124.5,517.7,129.5,517.7,136.7L517.7,136.7z
					 M508.4,136.7c0-4.7-0.7-8-2.2-9.8c-1.5-1.7-3.6-2.6-6.3-2.6l0,0H498v25.1h1.9c2.8,0,4.9-0.9,6.3-2.8
					C507.7,144.7,508.4,141.4,508.4,136.7L508.4,136.7z"/>
			</g>
		</g>
		<g transform="matrix(1,0,0,1,163.31020800000005,49.69477010479755)">
			<g transform="matrix(1,0,0,1,0,0)">
				<path id="text-1" class="st1" d="M129.7,129h-7.5v-11.9h1.4v10.6h6V129z M135.4,129.2L135.4,129.2c-0.7,0-1.2-0.1-1.7-0.4
					c-0.4-0.2-0.8-0.6-1-0.9c-0.2-0.4-0.3-0.8-0.3-1.3l0,0c0-0.9,0.3-1.5,0.9-2c0.6-0.4,1.5-0.7,2.5-0.7l0,0h2.3v-0.2
					c0-1.5-0.7-2.2-2-2.2l0,0c-0.5,0-1,0.1-1.4,0.4c-0.4,0.2-0.6,0.6-0.7,1.1l0,0h-1.5c0.1-0.6,0.2-1.1,0.6-1.5
					c0.3-0.4,0.7-0.7,1.3-0.9c0.5-0.2,1.1-0.3,1.7-0.3l0,0c1.2,0,2.1,0.3,2.6,0.9c0.6,0.6,0.8,1.5,0.8,2.5l0,0v5.2h-1.2l-0.1-1.3
					h-0.1c-0.2,0.4-0.6,0.8-1,1.1C136.7,129.1,136.1,129.2,135.4,129.2z M135.6,128L135.6,128c0.5,0,1-0.1,1.4-0.4
					c0.4-0.3,0.7-0.6,0.9-1c0.2-0.4,0.3-0.9,0.3-1.4l0,0H136c-0.8,0-1.3,0.1-1.6,0.4c-0.3,0.3-0.5,0.6-0.5,1l0,0
					c0,0.4,0.1,0.8,0.4,1C134.6,127.8,135.1,128,135.6,128z M146.1,126.5L146.1,126.5c-0.6,0-1.1-0.1-1.6-0.3l0,0l-0.6,0.7
					c-0.1,0.2-0.2,0.3-0.1,0.5c0.1,0.2,0.2,0.2,0.5,0.2l0,0h2.2c1,0,1.8,0.2,2.4,0.6c0.6,0.4,0.9,1,0.9,1.9l0,0c0,0.5-0.1,1-0.4,1.4
					c-0.3,0.4-0.7,0.8-1.2,1c-0.6,0.3-1.3,0.4-2.2,0.4l0,0c-1.2,0-2.1-0.2-2.8-0.7c-0.7-0.4-1.1-1.1-1.1-2l0,0
					c0-0.3,0.1-0.6,0.2-0.9c0.2-0.3,0.4-0.5,0.6-0.7l0,0c-0.3-0.2-0.5-0.5-0.6-0.9c-0.1-0.4,0-0.8,0.4-1.2l0,0l0.8-1
					c-0.5-0.6-0.8-1.3-0.8-2.1l0,0c0-0.5,0.1-1.1,0.4-1.5c0.3-0.5,0.6-0.8,1.1-1.1c0.5-0.3,1.1-0.4,1.8-0.4l0,0
					c0.5,0,0.9,0.1,1.3,0.2l0,0h3.2v1.1l-1.6,0.1v0.1c0.3,0.5,0.4,1,0.4,1.6l0,0c0,0.5-0.1,1.1-0.4,1.5c-0.3,0.5-0.6,0.8-1.1,1.1
					S146.8,126.5,146.1,126.5z M146.1,125.3L146.1,125.3c0.6,0,1-0.2,1.4-0.5c0.4-0.3,0.5-0.8,0.5-1.4l0,0c0-0.6-0.2-1-0.5-1.4
					c-0.4-0.3-0.8-0.5-1.4-0.5l0,0c-0.6,0-1,0.2-1.4,0.5c-0.4,0.3-0.5,0.8-0.5,1.4l0,0c0,0.6,0.2,1,0.5,1.4
					C145.1,125.2,145.6,125.3,146.1,125.3z M143.7,130.2L143.7,130.2c0,0.5,0.2,0.9,0.7,1.1c0.5,0.2,1.1,0.4,1.8,0.4l0,0
					c0.7,0,1.3-0.1,1.7-0.4c0.4-0.3,0.7-0.7,0.7-1.1l0,0c0-0.4-0.2-0.7-0.5-0.9c-0.3-0.3-0.9-0.4-1.8-0.4l0,0h-1.9
					C143.9,129.2,143.7,129.7,143.7,130.2z M156.4,119.1L156.4,119.1c-0.3,0-0.6-0.1-0.9-0.3c-0.2-0.2-0.3-0.5-0.3-0.8l0,0
					c0-0.3,0.1-0.6,0.3-0.8c0.2-0.2,0.5-0.3,0.9-0.3l0,0c0.3,0,0.6,0.1,0.8,0.3c0.2,0.2,0.3,0.5,0.3,0.8l0,0c0,0.3-0.1,0.6-0.3,0.8
					C157,119,156.7,119.1,156.4,119.1z M159.9,129h-6.8v-1.2h2.7v-5.6c0-0.3-0.1-0.4-0.4-0.4l0,0h-2v-1.2h2.3c1,0,1.5,0.5,1.5,1.5
					l0,0v5.7h2.7V129z M177,129.2L177,129.2c-0.8,0-1.6-0.2-2.2-0.5c-0.6-0.3-1.1-0.8-1.4-1.3c-0.3-0.6-0.5-1.2-0.5-2l0,0h1.5
					c0,0.7,0.2,1.3,0.7,1.8c0.4,0.5,1.1,0.7,1.9,0.7l0,0c0.8,0,1.4-0.2,1.8-0.6c0.4-0.4,0.6-0.8,0.6-1.4l0,0c0-0.4-0.1-0.8-0.3-1.1
					c-0.2-0.3-0.5-0.6-1-0.8c-0.5-0.2-1.1-0.5-1.8-0.7l0,0c-1.1-0.3-1.9-0.8-2.4-1.3s-0.7-1.3-0.7-2.1l0,0c0-0.6,0.1-1.1,0.4-1.5
					c0.3-0.5,0.7-0.8,1.3-1.1c0.6-0.3,1.2-0.4,2-0.4l0,0c0.7,0,1.4,0.1,2,0.4c0.6,0.3,1,0.7,1.3,1.2c0.3,0.5,0.5,1.1,0.5,1.7l0,0
					h-1.5c0-0.3-0.1-0.6-0.3-0.9c-0.2-0.3-0.4-0.6-0.8-0.8s-0.8-0.3-1.3-0.3l0,0c-0.6,0-1.1,0.1-1.6,0.4c-0.4,0.3-0.6,0.7-0.6,1.2
					l0,0c0,0.4,0.1,0.7,0.3,1c0.2,0.3,0.5,0.5,0.9,0.7c0.4,0.2,1,0.5,1.8,0.7l0,0c0.7,0.2,1.3,0.5,1.8,0.8c0.5,0.3,0.9,0.7,1.1,1.1
					c0.3,0.4,0.4,1,0.4,1.7l0,0c0,0.6-0.2,1.2-0.5,1.7c-0.3,0.5-0.8,0.9-1.4,1.2C178.5,129.1,177.8,129.2,177,129.2z M187.2,129.2
					L187.2,129.2c-0.8,0-1.5-0.2-2.1-0.6c-0.6-0.4-1.1-0.9-1.4-1.5c-0.4-0.7-0.5-1.4-0.5-2.3l0,0c0-0.9,0.2-1.7,0.5-2.3
					c0.3-0.7,0.8-1.2,1.4-1.5c0.6-0.4,1.3-0.6,2.1-0.6l0,0c0.8,0,1.5,0.2,2.1,0.6c0.6,0.4,1,0.9,1.3,1.5s0.5,1.2,0.5,1.9l0,0
					c0,0.1,0,0.2,0,0.4c0,0.1,0,0.3,0,0.4l0,0h-6.6c0,0.6,0.2,1.1,0.4,1.6c0.3,0.4,0.6,0.7,1,0.9c0.4,0.2,0.8,0.3,1.3,0.3l0,0
					c0.6,0,1.1-0.1,1.5-0.4c0.4-0.3,0.6-0.6,0.8-1.1l0,0h1.4c-0.2,0.8-0.6,1.4-1.2,2C189.1,129,188.2,129.2,187.2,129.2z
					 M187.2,121.7L187.2,121.7c-0.7,0-1.2,0.2-1.7,0.6c-0.5,0.4-0.8,1-0.9,1.7l0,0h5.1c0-0.7-0.3-1.3-0.8-1.7
					C188.5,121.9,187.9,121.7,187.2,121.7z M197.5,129.2L197.5,129.2c-0.8,0-1.4-0.2-2-0.5c-0.6-0.4-1.1-0.9-1.4-1.5
					c-0.4-0.7-0.5-1.5-0.5-2.4l0,0c0-0.9,0.2-1.7,0.5-2.4c0.4-0.7,0.8-1.2,1.4-1.5c0.6-0.4,1.3-0.5,2-0.5l0,0c1,0,1.9,0.3,2.5,0.8
					c0.6,0.5,1,1.2,1.2,2.1l0,0h-1.5c-0.1-0.5-0.4-0.8-0.8-1.1c-0.4-0.3-0.9-0.4-1.5-0.4l0,0c-0.4,0-0.8,0.1-1.2,0.3
					c-0.4,0.2-0.7,0.6-0.9,1c-0.2,0.5-0.4,1-0.4,1.7l0,0c0,0.7,0.1,1.3,0.4,1.7c0.2,0.5,0.6,0.8,0.9,1c0.4,0.2,0.8,0.3,1.2,0.3l0,0
					c0.6,0,1.1-0.1,1.5-0.4c0.4-0.3,0.6-0.7,0.8-1.1l0,0h1.5c-0.2,0.9-0.6,1.6-1.3,2.1C199.3,129,198.4,129.2,197.5,129.2z
					 M206.9,129.2L206.9,129.2c-1,0-1.8-0.3-2.3-0.9c-0.5-0.6-0.8-1.5-0.8-2.7l0,0v-5.1h1.4v4.9c0,0.7,0.2,1.3,0.5,1.8
					c0.3,0.4,0.8,0.6,1.5,0.6l0,0c0.7,0,1.3-0.2,1.7-0.7c0.5-0.5,0.7-1.1,0.7-2l0,0v-4.6h1.4v8.4H210l-0.2-1.3h-0.1
					c-0.2,0.4-0.6,0.8-1.1,1C208.2,129.1,207.6,129.2,206.9,129.2z M220.3,129h-6.2v-1.2h2.2v-5.6c0-0.3-0.1-0.4-0.4-0.4l0,0h-1.5
					v-1.2h2.1c0.4,0,0.7,0.1,0.9,0.3c0.2,0.2,0.3,0.5,0.3,0.9l0,0v0.4h0.1c0.1-0.6,0.4-1,0.8-1.3c0.4-0.3,0.9-0.5,1.6-0.5l0,0h1.5
					v1.5h-1.8c-0.7,0-1.2,0.2-1.6,0.7c-0.4,0.5-0.6,1-0.6,1.8l0,0v3.5h2.7V129z M228,129.2L228,129.2c-0.8,0-1.5-0.2-2.1-0.6
					c-0.6-0.4-1.1-0.9-1.4-1.5c-0.4-0.7-0.5-1.4-0.5-2.3l0,0c0-0.9,0.2-1.7,0.5-2.3c0.3-0.7,0.8-1.2,1.4-1.5
					c0.6-0.4,1.3-0.6,2.1-0.6l0,0c0.8,0,1.5,0.2,2.1,0.6c0.6,0.4,1,0.9,1.3,1.5c0.3,0.6,0.5,1.2,0.5,1.9l0,0c0,0.1,0,0.2,0,0.4
					c0,0.1,0,0.3,0,0.4l0,0h-6.6c0,0.6,0.2,1.1,0.4,1.6c0.3,0.4,0.6,0.7,1,0.9c0.4,0.2,0.8,0.3,1.3,0.3l0,0c0.6,0,1.1-0.1,1.5-0.4
					c0.4-0.3,0.6-0.6,0.8-1.1l0,0h1.4c-0.2,0.8-0.6,1.4-1.2,2C229.9,129,229.1,129.2,228,129.2z M228,121.7L228,121.7
					c-0.7,0-1.2,0.2-1.7,0.6c-0.5,0.4-0.8,1-0.9,1.7l0,0h5.1c0-0.7-0.3-1.3-0.8-1.7C229.3,121.9,228.7,121.7,228,121.7z
					 M237.2,131.1h-1.4l1.5-4.6h1.9L237.2,131.1z M258.7,129.2L258.7,129.2c-0.8,0-1.6-0.2-2.2-0.5c-0.6-0.3-1.1-0.8-1.4-1.3
					c-0.3-0.6-0.5-1.2-0.5-2l0,0h1.5c0,0.7,0.2,1.3,0.7,1.8c0.4,0.5,1.1,0.7,1.9,0.7l0,0c0.8,0,1.4-0.2,1.8-0.6
					c0.4-0.4,0.6-0.8,0.6-1.4l0,0c0-0.4-0.1-0.8-0.3-1.1c-0.2-0.3-0.5-0.6-1-0.8c-0.5-0.2-1.1-0.5-1.8-0.7l0,0
					c-1.1-0.3-1.9-0.8-2.4-1.3c-0.5-0.6-0.7-1.3-0.7-2.1l0,0c0-0.6,0.1-1.1,0.4-1.5c0.3-0.5,0.7-0.8,1.3-1.1c0.6-0.3,1.2-0.4,2-0.4
					l0,0c0.7,0,1.4,0.1,2,0.4c0.6,0.3,1,0.7,1.3,1.2c0.3,0.5,0.5,1.1,0.5,1.7l0,0h-1.5c0-0.3-0.1-0.6-0.3-0.9
					c-0.2-0.3-0.4-0.6-0.8-0.8c-0.3-0.2-0.8-0.3-1.3-0.3l0,0c-0.6,0-1.1,0.1-1.6,0.4c-0.4,0.3-0.6,0.7-0.6,1.2l0,0
					c0,0.4,0.1,0.7,0.3,1c0.2,0.3,0.5,0.5,0.9,0.7c0.4,0.2,1,0.5,1.8,0.7l0,0c0.7,0.2,1.3,0.5,1.8,0.8c0.5,0.3,0.9,0.7,1.1,1.1
					c0.3,0.4,0.4,1,0.4,1.7l0,0c0,0.6-0.2,1.2-0.5,1.7c-0.3,0.5-0.8,0.9-1.4,1.2C260.2,129.1,259.5,129.2,258.7,129.2z M268.1,129.2
					L268.1,129.2c-0.7,0-1.2-0.1-1.7-0.4c-0.4-0.2-0.8-0.6-1-0.9c-0.2-0.4-0.3-0.8-0.3-1.3l0,0c0-0.9,0.3-1.5,0.9-2
					c0.6-0.4,1.5-0.7,2.5-0.7l0,0h2.3v-0.2c0-1.5-0.7-2.2-2-2.2l0,0c-0.5,0-1,0.1-1.4,0.4c-0.4,0.2-0.6,0.6-0.7,1.1l0,0h-1.5
					c0.1-0.6,0.2-1.1,0.6-1.5c0.3-0.4,0.7-0.7,1.3-0.9c0.5-0.2,1.1-0.3,1.7-0.3l0,0c1.2,0,2.1,0.3,2.6,0.9c0.6,0.6,0.8,1.5,0.8,2.5
					l0,0v5.2h-1.2l-0.1-1.3h-0.1c-0.2,0.4-0.6,0.8-1,1.1C269.4,129.1,268.8,129.2,268.1,129.2z M268.3,128L268.3,128
					c0.5,0,1-0.1,1.4-0.4c0.4-0.3,0.7-0.6,0.9-1c0.2-0.4,0.3-0.9,0.3-1.4l0,0h-2.2c-0.8,0-1.3,0.1-1.6,0.4c-0.3,0.3-0.5,0.6-0.5,1
					l0,0c0,0.4,0.1,0.8,0.4,1C267.3,127.8,267.8,128,268.3,128z M282.2,129h-2.3c-0.8,0-1.4-0.2-1.8-0.6c-0.4-0.4-0.7-1-0.7-2l0,0
					v-4.6h-2.1v-1.2h1.3c0.6,0,0.9-0.3,1-0.9l0,0l0.2-1.3h1.1v2.2h3.4v1.2h-3.4v4.6c0,0.5,0.1,0.8,0.3,1c0.2,0.2,0.6,0.3,1.1,0.3
					l0,0h1.9V129z M288.6,129.2L288.6,129.2c-1,0-1.8-0.3-2.3-0.9c-0.5-0.6-0.8-1.5-0.8-2.7l0,0v-5.1h1.4v4.9c0,0.7,0.2,1.3,0.5,1.8
					c0.3,0.4,0.8,0.6,1.5,0.6l0,0c0.7,0,1.3-0.2,1.7-0.7c0.5-0.5,0.7-1.1,0.7-2l0,0v-4.6h1.4v8.4h-1.2l-0.2-1.3h-0.1
					c-0.2,0.4-0.6,0.8-1.1,1C289.8,129.1,289.2,129.2,288.6,129.2z M307.2,129h-1.4v-11.9h4c0.9,0,1.7,0.2,2.2,0.5
					c0.6,0.3,1,0.8,1.3,1.3c0.3,0.5,0.4,1.1,0.4,1.8l0,0c0,0.7-0.1,1.3-0.4,1.8c-0.3,0.5-0.7,1-1.3,1.3c-0.6,0.3-1.3,0.5-2.2,0.5
					l0,0h-2.5V129z M307.2,118.4v4.6h2.5c0.8,0,1.5-0.2,1.9-0.6c0.4-0.4,0.6-1,0.6-1.7l0,0c0-0.7-0.2-1.2-0.6-1.7
					c-0.4-0.4-1-0.6-1.9-0.6l0,0H307.2z M323.2,129H316v-1.2h2.9v-9.4c0-0.3-0.1-0.4-0.4-0.4l0,0h-2.1v-1.2h2.5
					c0.5,0,0.9,0.1,1.1,0.4s0.4,0.6,0.4,1.1l0,0v9.5h2.9V129z M329.3,129.2L329.3,129.2c-0.7,0-1.2-0.1-1.7-0.4
					c-0.4-0.2-0.8-0.6-1-0.9c-0.2-0.4-0.3-0.8-0.3-1.3l0,0c0-0.9,0.3-1.5,0.9-2c0.6-0.4,1.5-0.7,2.5-0.7l0,0h2.3v-0.2
					c0-1.5-0.7-2.2-2-2.2l0,0c-0.5,0-1,0.1-1.4,0.4c-0.4,0.2-0.6,0.6-0.7,1.1l0,0h-1.5c0.1-0.6,0.2-1.1,0.6-1.5
					c0.3-0.4,0.7-0.7,1.3-0.9c0.5-0.2,1.1-0.3,1.7-0.3l0,0c1.2,0,2.1,0.3,2.6,0.9c0.6,0.6,0.8,1.5,0.8,2.5l0,0v5.2h-1.2l-0.1-1.3
					h-0.1c-0.2,0.4-0.6,0.8-1,1.1C330.7,129.1,330.1,129.2,329.3,129.2z M329.6,128L329.6,128c0.5,0,1-0.1,1.4-0.4
					c0.4-0.3,0.7-0.6,0.9-1c0.2-0.4,0.3-0.9,0.3-1.4l0,0h-2.2c-0.8,0-1.3,0.1-1.6,0.4c-0.3,0.3-0.5,0.6-0.5,1l0,0
					c0,0.4,0.1,0.8,0.4,1S329,128,329.6,128z M340.4,129.2L340.4,129.2c-0.8,0-1.4-0.2-2-0.5c-0.6-0.4-1.1-0.9-1.4-1.5
					c-0.4-0.7-0.5-1.5-0.5-2.4l0,0c0-0.9,0.2-1.7,0.5-2.4c0.4-0.7,0.8-1.2,1.4-1.5c0.6-0.4,1.3-0.5,2-0.5l0,0c1,0,1.9,0.3,2.5,0.8
					c0.6,0.5,1,1.2,1.2,2.1l0,0h-1.5c-0.1-0.5-0.4-0.8-0.8-1.1c-0.4-0.3-0.9-0.4-1.5-0.4l0,0c-0.4,0-0.8,0.1-1.2,0.3
					c-0.4,0.2-0.7,0.6-0.9,1c-0.2,0.5-0.4,1-0.4,1.7l0,0c0,0.7,0.1,1.3,0.4,1.7c0.2,0.5,0.6,0.8,0.9,1c0.4,0.2,0.8,0.3,1.2,0.3l0,0
					c0.6,0,1.1-0.1,1.5-0.4c0.4-0.3,0.6-0.7,0.8-1.1l0,0h1.5c-0.2,0.9-0.6,1.6-1.3,2.1C342.2,129,341.4,129.2,340.4,129.2z
					 M350.5,129.2L350.5,129.2c-0.8,0-1.5-0.2-2.1-0.6c-0.6-0.4-1.1-0.9-1.4-1.5c-0.4-0.7-0.5-1.4-0.5-2.3l0,0
					c0-0.9,0.2-1.7,0.5-2.3c0.3-0.7,0.8-1.2,1.4-1.5c0.6-0.4,1.3-0.6,2.1-0.6l0,0c0.8,0,1.5,0.2,2.1,0.6c0.6,0.4,1,0.9,1.3,1.5
					s0.5,1.2,0.5,1.9l0,0c0,0.1,0,0.2,0,0.4c0,0.1,0,0.3,0,0.4l0,0h-6.6c0,0.6,0.2,1.1,0.4,1.6c0.3,0.4,0.6,0.7,1,0.9
					c0.4,0.2,0.8,0.3,1.2,0.3l0,0c0.6,0,1.1-0.1,1.5-0.4c0.4-0.3,0.6-0.6,0.8-1.1l0,0h1.4c-0.2,0.8-0.6,1.4-1.2,2
					C352.4,129,351.6,129.2,350.5,129.2z M350.5,121.7L350.5,121.7c-0.7,0-1.2,0.2-1.7,0.6c-0.5,0.4-0.8,1-0.9,1.7l0,0h5.1
					c0-0.7-0.3-1.3-0.8-1.7C351.8,121.9,351.2,121.7,350.5,121.7z"/>
			</g>
		</g>
	</g>
</g>
<g id="Logo" transform="matrix(1,0,0,1,123.23552262946622,0)">
	<g>
		<path class="st0" d="M262.2,153.7h-38.7v-14.5c0-1.6,0.6-15,14.9-15s14.9,13.4,14.9,15v4.9h7.5v-4.9c0-7.8-4.7-22.4-22.4-22.4
			c-17.7,0-22.4,14.7-22.4,22.4v14.5h-0.3c-5,0-9.1,4.2-9.1,9.4v1.2h-68c-9,0-16.4,7.3-16.4,16.3c0,9,7.3,16.4,16.4,16.4h68v1.5
			c0,5.2,4.1,9.4,9.1,9.4h46.4c5,0,9.1-4.2,9.1-9.4v-35.4C271.3,157.9,267.2,153.7,262.2,153.7z M206,191.5h-67.4
			c-6,0-10.9-4.9-10.9-10.9c0-6,4.9-10.9,10.9-10.9H206V191.5z M244.3,191.5h-12.6l3.3-10c-2-1.1-3.3-3.1-3.3-5.5
			c0-3.5,2.8-6.3,6.3-6.3c3.5,0,6.3,2.8,6.3,6.3c0,2.4-1.3,4.5-3.3,5.5L244.3,191.5z"/>
		<polygon class="st0" points="146.8,180.6 152.9,185.3 150.9,187.9 145.8,183.9 145.8,189.1 142.5,189.1 142.5,183.9 137.4,187.9 
			135.4,185.3 141.5,180.6 135.4,175.9 137.4,173.3 142.5,177.3 142.5,172.1 145.8,172.1 145.8,177.3 150.9,173.3 152.9,175.9 		"/>
		<polygon class="st0" points="171.5,180.6 177.6,185.3 175.6,187.9 170.4,183.9 170.4,189.1 167.2,189.1 167.2,183.9 162.1,187.9 
			160.1,185.3 166.2,180.6 160.1,175.9 162.1,173.3 167.2,177.3 167.2,172.1 170.4,172.1 170.4,177.3 175.6,173.3 177.6,175.9 		"/>
		<polygon class="st0" points="196.1,180.6 202.3,185.3 200.3,187.9 195.1,183.9 195.1,189.1 191.9,189.1 191.9,183.9 186.8,187.9 
			184.8,185.3 190.9,180.6 184.8,175.9 186.8,173.3 191.9,177.3 191.9,172.1 195.1,172.1 195.1,177.3 200.3,173.3 202.3,175.9 		"/>
	</g>
</g>
</svg>
